<?xml version="1.0" encoding="UTF-8" standalone="no"?>
<!-- Created with Inkscape (http://www.inkscape.org/) -->
<svg xmlns:dc="http://purl.org/dc/elements/1.1/" xmlns:cc="http://creativecommons.org/ns#" xmlns:rdf="http://www.w3.org/1999/02/22-rdf-syntax-ns#" xmlns:svg="http://www.w3.org/2000/svg" xmlns="http://www.w3.org/2000/svg" version="1.1" width="239.09125" height="49.195099" id="svg3442">
  <defs id="defs3444"/>
  <metadata id="metadata3447">
    <rdf:RDF>
      <cc:Work rdf:about="">
        <dc:format>image/svg+xml</dc:format>
        <dc:type rdf:resource="http://purl.org/dc/dcmitype/StillImage"/>
        <dc:title/>
      </cc:Work>
    </rdf:RDF>
  </metadata>
  <g transform="translate(-211.88295,-442.0504)" id="layer1">
    <path d="m 398.1742,469.37915 c 0,0 -1.25875,0 -1.73375,0 -0.475,0 -1.0775,-0.39125 -1.0775,-1.175 0,-0.78375 0,-4.02875 0,-5.5975 0,-3.19 -2.78375,-5.13 -5.1975,-5.13 -1.975,0 -3.685,1.05375 -4.93375,3.65625 0,-0.92125 0,-3.235 0,-3.235 l -6.69625,0 0,16.20875 6.69625,0 c 0,-1.14625 0,-8.5325 0,-9.175 0,-1.125 0.20875,-2.35 1.475,-2.35 1.26875,0 1.59125,1.23 1.59125,2.35 0,0.53 0,3.105 0,4.30625 0,2.37 2.3125,4.86875 5.2875,4.86875 1.26,0 11.61125,0 11.61125,0 l 0,-16.19875 -7.0225,0 0,11.47125" id="path3246" style="fill:#0067a6;fill-opacity:1;fill-rule:nonzero;stroke:none"/>
    <path d="m 319.3792,469.5379 c -1.01375,0 -2.3075,-0.40125 -2.3075,-3.76 0,-3.3575 1.29375,-3.7575 2.3075,-3.7575 1.01375,0 2.3075,0.4 2.3075,3.7575 0,3.35875 -1.29375,3.76 -2.3075,3.76 z m -19.61875,-4.7175 c 0.25125,-2.47875 1.4925,-3.16625 2.4975,-3.16625 1.005,0 2.2475,0.6875 2.49875,3.16625 l -4.99625,0 z m -17.91,-11.675 -2.65625,10.21125 -2.665,-10.21125 -9.115,0 -3.205,20.90625 7.33,0 1.66375,-11.8775 3.10875,11.8775 5.765,0 3.10875,-11.8775 1.66375,11.8775 7.33,0 -0.8125,-5.2975 c 1.00875,3.41 3.82875,5.73875 9.06375,5.73875 5.28875,0 7.5825,-1.56125 7.5825,-1.56125 l 0,-3.915 c 0,0 -1.98625,1.39875 -5.82,1.39875 -3.83375,0 -4.4325,-1.39875 -4.4325,-2.8825 l 10.925,0 c 0.5475,4.94 3.715,6.9475 6.59375,6.9475 4.3325,0 5.25875,-4.28875 5.25875,-4.28875 0,1.34375 2.2775,4.3625 6.0825,4.3625 4.06625,0 6.93875,-1.78875 6.93875,-1.78875 0,0 1.1575,1.67875 4.40125,1.67875 2.49,0 4.73875,-0.8225 4.73875,-0.8225 l 0,-4.1025 c 0,0 -0.64875,0.11375 -1.24875,0.11375 -1.1375,0 -2.3225,-0.545 -2.3225,-2.22125 0,-1.8275 0,-5.1875 0,-5.1875 l 3.57125,0 0,-4.32625 -3.54375,0 0,-6.28375 -7.18125,0 0,6.265 -2.78,0 0,4.345 2.78,0 c 0,0 0,4.82625 0,5.4225 0,0.9275 -0.65375,2.27125 -2.32,2.27125 -1.225,0 -2.17625,-0.92125 -2.17625,-2.27125 0,-3.8625 0,-16.005 0,-16.005 l -7.0975,0 0,8.44 c 0,0 -1.57625,-2.68625 -5.06375,-2.68625 -1.2775,0 -5.93625,0.7925 -6.63,6.9675 0.0125,0.0462 0.0138,0.0875 0.0138,0.12875 -0.0125,-0.0487 -0.0163,-0.0913 -0.0138,-0.12875 -0.835,-4.38375 -3.59125,-6.92875 -8.56375,-6.92875 -6.3525,0 -9.20125,4.46625 -9.20125,7.91625 0,0.19125 0,0.3775 0.0125,0.56125 l -1.95375,-12.76625 -9.12875,0" id="path3248" style="fill:#0067a6;fill-opacity:1;fill-rule:nonzero;stroke:none"/>
    <path d="m 367.5992,469.5379 c -1.0125,0 -2.30625,-0.40125 -2.30625,-3.76 0,-3.3575 1.29375,-3.7575 2.30625,-3.7575 1.01375,0 2.31,0.4 2.31,3.7575 0,3.35875 -1.29625,3.76 -2.31,3.76 z m 0.11375,-12.10375 c -3.50625,0 -6.78,1.2275 -8.46875,3.82125 l 0,-3.2625 c 0,0 -0.35125,-0.11375 -1.14875,-0.11375 -2.6375,0 -4.415,2.3975 -5.2525,4.14125 0,-0.92375 0,-4.1225 0,-4.1225 l -6.69375,0 0,16.20875 6.69375,0 c 0,-1.14625 0,-5.79 0,-6.4325 0,-0.645 1.44875,-3.975 4.69375,-3.975 0.17875,0 0.42875,0.0413 0.6825,0.095 -0.11,0.55375 -0.17,1.14375 -0.17,1.7725 l 0,0.67625 c 0,5.77125 4.58875,8.26625 9.66375,8.26625 5.07375,0 9.66125,-2.495 9.66125,-8.26625 l 0,-0.67625 c 0,-5.56125 -4.5875,-8.1325 -9.66125,-8.1325" id="path3250" style="fill:#0067a6;fill-opacity:1;fill-rule:nonzero;stroke:none"/>
    <path d="m 418.48795,462.0354 c 1.4275,0 3.5475,0.81125 3.5475,0.81125 l 0,-4.60125 c 0,0 -1.75625,-0.76875 -5.50625,-0.76875 -8.9025,0 -10.325,4.9925 -10.325,8.35 0,3.3575 1.47875,8.6175 10.4375,8.6175 3.805,0 5.39375,-0.81125 5.39375,-0.81125 l 0,-4.86875 c 0,0 -1.365,0.88625 -3.35125,0.88625 -1.98625,0 -4.0575,-0.86 -4.0575,-3.82375 0,-2.96625 2.435,-3.79125 3.86125,-3.79125" id="path3252" style="fill:#0067a6;fill-opacity:1;fill-rule:nonzero;stroke:none"/>
    <path d="m 398.1742,456.21665 7.02225,0 0,-4.592 -7.02225,0 0,4.592 z" id="path3254" style="fill:#0067a6;fill-opacity:1;fill-rule:nonzero;stroke:none"/>
    <path d="m 256.9792,466.6204 c -0.175,0.46875 -1.08125,-0.125 -2.13125,-0.125 -0.7825,0 -4.75625,0.87625 -6.0125,0.87625 -1.98375,0 -2.5875,-1.12125 -5.4475,-1.12125 -2.315,-2.53125 -3.58,-2.88125 -5.3675,-3.9625 l 0.0812,-0.49375 c 2.53375,0.17375 3.02625,0.32 5.80875,1.365 0.245,0.0913 0.63375,-0.0213 1.135,0.18375 0.50125,0.20375 0.47125,0.315 1.565,0.6225 2.27,0.6375 0.84625,0.0688 3.67125,0.48125 1.89125,0.27625 2.02,0.3125 2.8175,0.3125 1.23,0 1.88125,-0.0812 2.61125,-1.335 0.76875,-1.31625 0.7225,-1.0625 1.07875,-2.44 0.0825,-0.315 0.24,-0.25625 0.2575,-0.009 0.29125,3.9225 -0.0487,3.0675 -0.11625,4.145 -0.045,0.715 0.20125,1.08375 0.0487,1.5 z m -9.08125,11.0225 c -0.36625,-0.90375 -0.81625,-2.57125 -1.20625,-3.80875 -0.45,-1.43125 -0.45,-1.82 -0.45,-2.70625 0,-1.70125 -1.165,-3.01875 -1.77875,-3.6025 1.29875,0 2.45,1.02625 4.3725,1.02625 0.84,0 2.89375,-0.39125 4.3975,-0.64875 -0.7375,3.795 -2.6475,7.1725 -5.335,9.74 z m 1.1975,2.49 c 1.50125,0.26125 1.2475,0.3075 2.66125,0.1625 0.32375,-0.0337 0.325,0.13375 0.1,0.23625 -3.5775,1.63875 -2.89375,1.02625 -3.9275,1.33625 -0.6875,0.2075 -0.94625,0.5675 -1.38875,0.5675 -0.545,0 -0.0812,-0.78875 -0.78875,-2.73125 -0.58875,-1.61375 -2.205,-2.875 -2.84375,-4.60125 -1.09,-2.95 -0.02,-4.09 -1.86125,-4.90875 -1.1775,-0.52375 -2.295,-1.10625 -3.22625,-1.805 0.0225,-0.18125 0.0362,-0.35 0.0362,-0.50625 0,-1.30875 -0.12375,-3.58 -0.12375,-4.31375 0,-0.0312 0.001,-0.06 0,-0.0875 4.7,2.71125 3.34125,2.25875 5.715,4.76375 0.23625,0.25125 1.63625,1.0575 1.63625,3.16125 0,0.88375 0,1.27125 0.45,2.705 0.44875,1.43 0.9825,3.43625 1.37,4.17125 0.38875,0.73625 0.87875,1.625 2.18875,1.85 z m -13.8675,2.59 c -0.15375,0 -0.30375,0 -0.45625,-0.005 0.0475,-1.95125 0.4525,-3.3175 0.4525,-4.62625 0,-2.11 1.11875,-3.82625 1.11875,-4.21625 0,-0.825 0.76875,-2.64125 1.21,-4.24 0.92125,0.6925 1.7125,1.0775 2.90125,1.58125 1.20625,0.5125 0.1025,0.96125 1.34875,4.33625 0.635,1.71625 2.25125,2.9675 2.83375,4.575 -2.75,1.6475 -5.97,2.595 -9.40875,2.595 z m -1.32375,-14.49375 c -0.20375,-0.5925 -0.12,-1.41 -0.11625,-1.44375 0.0175,-0.16875 0.16875,-0.29 0.3375,-0.27125 0.1675,0.0163 0.29,0.16875 0.2725,0.33625 -0.001,0.006 -0.0713,0.715 0.0875,1.17875 0.2375,0.69375 0.55625,1.34125 0.7425,1.50875 0.18875,0.1675 0.54625,0.26 0.76125,0.26375 0.0262,-0.2625 -0.1825,-0.97625 -0.2975,-1.37625 -0.24,-0.82 -0.34875,-1.19625 -0.08,-1.39625 0.0587,-0.045 0.21375,-0.1275 0.42875,-0.015 -0.19,-0.33375 -0.43,-0.6675 -0.91,-1.16375 -0.2375,-0.24375 -0.315,-0.68875 -0.285,-1.63375 0.0163,-0.53 0.0488,-1.04875 0.0762,-1.50625 0.0325,-0.53 0.0613,-0.99 0.0613,-1.36 0,-0.87125 -0.0512,-1.13125 -0.10625,-1.405 -0.0637,-0.3175 -0.12875,-0.64625 -0.12875,-1.76625 0,-1.025 -0.06,-1.49 -0.0987,-1.79875 -0.02,-0.15375 -0.035,-0.27375 -0.035,-0.40125 0,-0.4775 0.0487,-0.82125 0.0962,-1.15375 0.045,-0.325 0.0875,-0.6325 0.0875,-1.065 0,-1.035 -0.17625,-1.1575 -0.9175,-1.66625 l -0.0225,-0.015 c -0.14,-0.095 -0.175,-0.28625 -0.08,-0.42625 0.0962,-0.13875 0.2875,-0.17625 0.42625,-0.08 l 0.0238,0.0175 c 0.8425,0.57625 1.18375,0.8625 1.18375,2.17 0,0.47375 -0.0487,0.82 -0.095,1.15 -0.0462,0.3275 -0.0888,0.63625 -0.0888,1.06875 0,0.0888 0.0125,0.1875 0.0288,0.32375 0.0425,0.32375 0.10375,0.8125 0.10375,1.87625 0,1.05875 0.06,1.35625 0.1175,1.6475 0.0588,0.29 0.11875,0.59 0.11875,1.52375 0,0.39 -0.03,0.8575 -0.0625,1.4 -0.0288,0.45125 -0.06,0.965 -0.0775,1.485 -0.0275,0.9375 0.07,1.1425 0.115,1.19 0.785,0.81125 0.9975,1.24375 1.2875,1.84375 0.0637,0.12875 0.13,0.26375 0.20625,0.4125 0.0625,0.12 0.0375,0.27125 -0.06,0.36125 -0.1,0.095 -0.24875,0.11375 -0.36625,0.0438 -0.0137,-0.006 -0.23875,-0.1375 -0.4875,-0.28625 0.04,0.14875 0.0875,0.31375 0.1275,0.455 0.28625,0.975 0.44125,1.59375 0.215,1.93625 -0.0813,0.12375 -0.205,0.19875 -0.35125,0.2175 -0.30625,0.035 -0.94,-0.0713 -1.32375,-0.41375 -0.42375,-0.38125 -0.83625,-1.5375 -0.915,-1.76625 z m 0.77125,-20.13625 c 0.115,-0.15125 0.28375,-0.13 0.44,-0.009 0.18375,0.1425 1.13875,0.6825 1.71875,0.6825 0.555,0 0.44625,-0.375 0.4875,-0.59375 0.0213,-0.1075 0.11,-0.28125 0.14875,-0.5375 0.015,-0.095 -0.0425,-0.30125 0.02,-0.3775 0.1075,-0.14 0.355,-0.0288 0.33125,-0.27625 -0.0187,-0.2025 -0.23125,-0.505 -0.35125,-0.8125 8.82,1.07625 15.70875,8.4125 16.085,17.4325 -0.0488,0.009 -0.0987,-0.0163 -0.15,-0.0163 -0.7975,0 -0.925,-0.035 -2.81625,-0.31125 -2.825,-0.41125 -1.4025,0.15625 -3.67125,-0.48125 -1.095,-0.3075 -1.065,-0.3925 -1.565,-0.59625 -0.50125,-0.20625 -0.89,-0.0937 -1.135,-0.18375 -2.78,-1.0425 -3.27375,-1.2025 -6.00625,-1.4025 0.0288,-0.495 0.0462,-1.08125 0.0462,-1.81875 0,-1.11 -0.19,-2.08625 -0.28875,-2.89 -0.1,-0.8025 -0.11125,-1.4325 -0.27625,-1.99 -0.735,-2.49 -1.985,-2.77625 -1.985,-3.66875 0,-0.39 0.125,0.10125 0.24625,-1.13625 -0.3475,-0.1325 -0.92,-0.42 -1.14625,-0.59375 -0.15125,-0.11625 -0.2375,-0.28125 -0.1325,-0.42 z m -2.6425,30.065 c 0,0.8875 0.41875,2.92625 0.67625,4.39375 -7.72,-1.05875 -13.90875,-6.92125 -15.45375,-14.475 0.5975,-0.2225 1.0675,-0.5825 1.6825,-0.5825 0.9125,0 2.0175,1.6675 4.755,1.6675 3.3025,0 5.5225,-1.2375 6.565,-1.2375 0.47625,0 1.38625,0.28875 2.75375,0.28875 -0.0562,0.50625 -0.11,1.1575 -0.11,1.7575 0,1.61625 0.235,2.06875 0.235,2.50125 0,3.08125 -1.10375,3.6625 -1.10375,5.68625 z M 214.1517,464.71665 c 0,-1.9425 1.11125,-2.39625 2.525,-2.39625 0.68125,0 0.78125,-0.35 1.09375,-0.35 0.21375,0 0.0613,0.32 0.5425,0.35 0.3475,0.0188 0.9875,-0.0512 0.9875,0.43375 0,0.42125 -0.18,0.6 -0.18,0.77625 0,0.35375 0.48625,0.405 0.895,0.405 0.75625,0 0.41125,0.12125 0.84375,0.12125 1.26125,0 1.87,-1.86 4.5975,-2.0525 0.3975,-0.03 1.595,-0.125 1.595,-0.125 1.0975,0.585 1.495,0.6275 1.9175,0.935 1.045,0.755 0.895,1.28125 2.9425,2.48375 0.255,1.0375 0.8075,1.22125 1.06,1.645 -1.345,-0.005 -2.2425,-0.2875 -2.71375,-0.2875 -1.0425,0 -3.2625,1.23625 -6.565,1.23625 -2.8775,0 -3.1875,-1.66625 -4.755,-1.66625 -1.48375,0 -1.2225,0.74625 -2.84375,0.74625 -1.24,0 -1.9425,-0.77875 -1.9425,-2.255 z m 5.69125,-10.335 c 0.605,0.2875 1.33125,0.31875 1.68625,0.7625 0.89125,1.115 -0.03,2.8375 3.79,5.64625 -1.58875,0 -2.38625,0.6075 -4.4175,1.96375 l -0.3425,-0.0875 c -0.16875,-1.23375 -0.84625,-1.34375 -1.75625,-1.53375 -0.1825,-0.18375 -0.46,-0.42875 -0.99125,-0.42875 -0.29625,0 -0.33875,0.0612 -0.59125,0.15 0.45625,-2.35 1.3625,-4.5375 2.6225,-6.4725 z m 0.055,-4.55875 c 1.3225,-1.42375 2.52375,-0.9425 3.55875,0.0175 0.49875,0.465 0.81,0.2775 1.03875,0.49 0.15625,0.145 -0.1725,0.275 0.16,0.6225 0.24125,0.25375 0.76,0.63375 0.42875,0.99125 -0.28625,0.30625 -1.45875,0.79 -1.64,0.8625 -0.205,0.085 -0.3025,0.32125 -0.21875,0.52625 0.085,0.2025 0.315,0.29125 0.52375,0.2175 0.885,-0.30875 0.98625,-0.42625 0.98625,-0.42625 0.43875,0.545 0.33875,0.96625 1.18625,1.1475 1.71625,0.36375 2.80125,0.045 4.275,1.49375 0.49375,0.485 1.1725,0.8975 1.8225,1.18125 0.39625,1.32625 0.84625,2.2325 0.84625,2.8975 0,0.23125 -0.0125,0.43625 -0.0213,0.62625 -0.43875,-0.3125 -0.6825,-0.565 -0.95875,-0.84875 -0.12375,-0.12625 -0.25125,-0.25625 -0.39875,-0.39625 -0.1625,-0.15375 -0.41125,-0.305 -0.80375,-0.5425 -0.29875,-0.18125 -0.70875,-0.4275 -0.85125,-0.57 -0.11625,-0.1175 -0.25875,-0.27875 -0.425,-0.465 -0.72875,-0.82375 -1.7275,-1.95125 -2.8225,-1.95125 -0.7575,0 -1.19875,0.24125 -1.27125,0.28 -0.29125,0.1575 -0.40125,0.5175 -0.245,0.81 0.15625,0.2925 0.51875,0.40125 0.81,0.24625 0.0175,-0.0125 0.25625,-0.14 0.70625,-0.14 0.55625,0 1.41375,0.9675 1.92625,1.54625 0.17875,0.20125 0.3325,0.3775 0.475,0.51875 0.24625,0.2475 0.67,0.5025 1.08,0.75125 0.22,0.13 0.52375,0.315 0.6,0.3875 0.13,0.1225 0.2425,0.23625 0.3625,0.36125 0.3525,0.36 0.715,0.73375 1.4675,1.2175 0.0288,0.02 0.0575,0.0337 0.0875,0.0475 -0.305,0.76625 -0.755,0.99 -0.8,2.08375 l -0.001,-0.0138 c -1.085,-0.8225 -1.0875,-1.22375 -1.945,-1.84375 -0.4238,-0.31 -0.8213,-0.35125 -1.9188,-0.9375 l -1.7325,-1.08875 c -3.92875,-2.88625 -2.26,-3.73125 -3.78875,-5.64375 -0.745,-0.93125 -1.40375,-0.47375 -2.49875,-1.3475 -1.0625,-0.85125 -0.9425,-2.0925 0,-3.10875 z m 12.4075,-3.55625 c 0.25375,0.59875 0.71125,1.0975 0.71125,2.0725 0,1.285 -1.585,2.51375 -1.585,4.6325 0,0.85875 0.0762,1.6225 0.1925,2.305 -1.76375,-1.2875 -1.64625,-1.7475 -5.42375,-2.22625 l -0.18375,-0.33 c 0,0 0.37625,-0.305 0.37625,-0.99375 0,-0.5975 -0.61375,-1.33 -0.61375,-1.33 0,-0.17 0.0588,-0.6375 -0.77625,-1.25125 2.15375,-1.44875 4.6325,-2.4525 7.3025,-2.87875 z m 26.00875,17.00875 c 0,-0.95 -0.1075,-1.70375 -0.1225,-2.1625 -0.015,-0.46 -0.26,-1.5025 -1.3175,-1.5025 -1.05875,0 -1.25875,1.01125 -1.36625,1.4575 -0.1075,0.4425 -0.0925,0.50375 -0.46,1.05625 -0.1075,0.15875 -0.2225,0.35125 -0.35125,0.5425 -0.8075,-9.31 -8.1425,-16.7525 -17.405,-17.725 -0.0362,-0.11125 -0.065,-0.22 -0.075,-0.31 -0.03,-0.26625 -0.42125,-1.58125 -2.56625,-1.58125 -1.56625,0 -2.345,0.7775 -2.485,2.0225 -3.07,0.4825 -5.90375,1.6825 -8.32375,3.4175 -0.0138,-0.005 -0.0275,-0.0125 -0.0425,-0.0175 -0.32125,-0.21625 -1.15,-0.78375 -2.13125,-0.78375 -0.9825,0 -1.93375,0.5675 -2.65375,1.305 -1.06625,1.0875 -1.7975,2.91875 -0.12,4.64625 -1.46,2.215 -2.48,4.74625 -2.94,7.465 -2.43375,0.2625 -3.07125,2.2225 -3.07125,3.61125 0,2.3125 1.285,3.3275 3.18,3.52 1.6425,8.20125 8.41625,14.54875 16.83,15.54875 0.0125,0.0925 0.0137,0.16875 0.0137,0.235 0,0.9 -0.3075,1.4275 -0.3075,1.88875 0,0.22125 0.08,0.6 0.6825,0.6 0.46,0 0.58,-0.10875 0.95125,-0.10875 0.6375,0 1.04,0.22 1.915,0.22 0.34125,0 1.8525,-0.11125 2.46375,-0.14625 0.25875,-0.0163 0.34625,-0.4075 0.0825,-0.52 -0.11,-0.0513 -0.80625,-0.1725 -1.13,-0.28625 -0.32,-0.1125 -1.035,-0.635 -1.4675,-0.8575 -0.37,-0.19 -0.79375,-0.40125 -1.0575,-0.8875 0.0625,0 0.125,0 0.18875,0 3.55625,0 6.89125,-0.95 9.76375,-2.61125 0.13125,0.615 0.0325,0.74375 0.23875,1.3225 0.3375,0.955 1.1,1.185 1.97875,0.87625 0.47625,-0.17125 0.8625,-0.45 1.16625,-0.55875 0.30375,-0.1075 0.82,-0.075 1.71625,-0.39375 0.8975,-0.31625 1.6475,-0.6825 2.0625,-0.87875 0.3775,-0.17875 1.33,-0.70375 0.97625,-1.70125 -0.38,-1.07 -1.26375,-0.89125 -1.78,-0.84125 -0.92,0.09 -0.61125,0.0937 -2.1475,-0.1675 -0.22375,-0.04 -0.43875,-0.1325 -0.63875,-0.3025 3.05125,-2.85125 5.1875,-6.6675 5.92375,-10.96 0.1525,-0.0188 0.275,-0.0275 0.36,-0.0275 0.7825,0 1.2425,0.32125 1.78,0.32125 1.01125,0 1.57875,-0.84875 1.57875,-1.78 0,-0.505 -0.12125,-0.81375 -0.12125,-1.135 0,-0.3225 0.22875,-0.85875 0.22875,-1.81" id="path3256" style="fill:#69727b;fill-opacity:1;fill-rule:nonzero;stroke:none"/>
    <path d="m 265.90545,484.3254 c 0.17625,0 0.1975,-0.0213 0.2075,-0.20625 l 0.16625,-2.26625 c 0,-0.145 0,-0.27 -0.0213,-0.27 -0.03,0 -0.0937,0.0613 -0.3925,0.5075 l -1.43875,2.08 c -0.0838,0.12375 -0.0525,0.155 0.175,0.155 l 1.30375,0 z m 1.64625,2.9075 c 0.0613,0.0638 0.0312,0.2175 -0.0412,0.26 -0.32125,-0.0213 -0.71375,-0.0312 -1.16875,-0.0312 -0.47625,0 -0.88125,0.01 -1.19125,0.0312 -0.10375,-0.0425 -0.10375,-0.2175 -0.0125,-0.26 l 0.32,-0.03 c 0.2275,-0.0213 0.3625,-0.10375 0.405,-0.16625 0.03,-0.0512 0.0825,-0.19625 0.1125,-0.64125 l 0.0937,-1.3875 c 0.0125,-0.23625 0,-0.26875 -0.2175,-0.26875 l -1.49,0 c -0.31125,0 -0.33125,0.0113 -0.5275,0.32125 l -0.755,1.18 c -0.3625,0.56875 -0.46625,0.72375 -0.46625,0.77625 0,0.0625 0.0412,0.12375 0.2375,0.15625 l 0.3825,0.06 c 0.0838,0.0638 0.0525,0.2175 -0.02,0.26 -0.32125,-0.0213 -0.64125,-0.0312 -1.055,-0.0312 -0.40375,0 -0.77625,0.01 -1.15,0.0312 -0.0512,-0.0638 -0.04,-0.19625 0.0213,-0.26 l 0.28,-0.03 c 0.31,-0.0425 0.5375,-0.18625 0.745,-0.435 0.3,-0.3725 0.91,-1.19 1.7075,-2.32875 l 1.82125,-2.56625 c 0.445,-0.62125 0.57875,-0.89 0.62125,-1.06625 0.35125,-0.0512 0.735,-0.34125 0.755,-0.34125 0.0512,0 0.125,0.0412 0.125,0.0838 0,0.175 -0.0525,0.62 -0.105,1.52125 l -0.20625,3.91125 c -0.0625,1.14875 -0.0525,1.15875 0.5075,1.22125 l 0.26875,0.03" id="path3258" style="fill:#0067a6;fill-opacity:1;fill-rule:nonzero;stroke:none"/>
    <path d="m 268.8267,486.78915 c -0.0825,0.2375 -0.0725,0.34125 0.0412,0.34125 0.2275,0 0.71375,-0.5075 1.19,-1.045 0.10375,-0.0113 0.16625,0.0412 0.16625,0.14375 -0.26875,0.5175 -0.92125,1.3775 -1.78,1.3775 -0.31125,0 -0.40375,-0.145 -0.40375,-0.31 0,-0.16625 0.0512,-0.3525 0.2275,-0.88 l 1.645,-4.89625 c 0.24875,-0.72375 0.145,-0.82875 -0.0125,-0.89875 l -0.18625,-0.0838 c -0.0512,-0.0425 -0.0512,-0.13375 0,-0.16625 0.18625,-0.0725 0.8275,-0.26875 1.30375,-0.30875 l 0.0513,0.0612 c -0.13375,0.37125 -0.2375,0.66125 -0.61,1.78 l -1.635,4.885" id="path3260" style="fill:#0067a6;fill-opacity:1;fill-rule:nonzero;stroke:none"/>
    <path d="m 271.3717,486.78915 c -0.0825,0.2375 -0.0725,0.34125 0.0425,0.34125 0.22625,0 0.71375,-0.5075 1.19,-1.045 0.1025,-0.0113 0.165,0.0412 0.165,0.14375 -0.26875,0.5175 -0.92125,1.3775 -1.78,1.3775 -0.31125,0 -0.40375,-0.145 -0.40375,-0.31 0,-0.16625 0.0513,-0.3525 0.22875,-0.88 l 1.64375,-4.89625 c 0.24875,-0.72375 0.14625,-0.82875 -0.0125,-0.89875 l -0.18625,-0.0838 c -0.0513,-0.0425 -0.0513,-0.13375 0,-0.16625 0.18625,-0.0725 0.8275,-0.26875 1.305,-0.30875 l 0.0512,0.0612 c -0.135,0.37125 -0.23875,0.66125 -0.61,1.78 l -1.63625,4.885" id="path3262" style="fill:#0067a6;fill-opacity:1;fill-rule:nonzero;stroke:none"/>
    <path d="m 274.89045,484.05665 c -0.40375,0.43375 -0.6425,0.91125 -0.76625,1.21125 0.68375,-0.2075 1.00375,-0.405 1.3875,-0.765 0.32,-0.3025 0.4025,-0.6125 0.4025,-0.705 0,-0.105 -0.0512,-0.2375 -0.2375,-0.2375 -0.145,0 -0.41375,0.0925 -0.78625,0.49625 z m 1.645,-0.1975 c 0,0.78625 -1.02375,1.305 -2.51375,1.71875 -0.0738,0.17625 -0.14625,0.5075 -0.14625,0.92125 0,0.3525 0.21875,0.58875 0.4975,0.58875 0.3725,0 0.63125,-0.20625 1.0875,-0.59875 0.0925,0 0.15375,0.0825 0.13375,0.17625 -0.63125,0.775 -1.22125,0.94125 -1.65625,0.94125 -0.62125,0 -0.83875,-0.58 -0.83875,-1.0875 0,-0.6525 0.415,-1.91375 1.5425,-2.78375 0.53875,-0.41375 0.9425,-0.49625 1.2425,-0.49625 0.41375,0 0.65125,0.35125 0.65125,0.62" id="path3264" style="fill:#0067a6;fill-opacity:1;fill-rule:nonzero;stroke:none"/>
    <path d="m 278.0467,484.1404 c 0.0625,-0.1975 0.0625,-0.30125 -0.0725,-0.30125 -0.19625,0 -0.64125,0.37375 -0.9625,0.72375 -0.0925,0 -0.165,-0.0925 -0.155,-0.175 0.33125,-0.465 1.025,-1.14875 1.63625,-1.14875 0.2375,0 0.475,0.3 0.32,0.68375 l -0.89,2.30625 c -0.0513,0.145 -0.10375,0.3525 -0.10375,0.4875 0,0.175 0.0837,0.37125 0.30125,0.37125 0.2375,0 0.66125,-0.23625 1.1275,-0.765 0.6,-0.6825 0.89,-1.49 0.89,-1.9775 0,-0.2475 -0.0213,-0.49625 -0.0937,-0.73375 0.0213,-0.2175 0.18625,-0.3725 0.3825,-0.3725 0.33125,0 0.40375,0.3825 0.40375,0.64125 0,0.75625 -0.775,2.225 -1.665,2.97125 -0.7875,0.65125 -1.36625,0.755 -1.615,0.755 -0.27,0 -0.47625,-0.31 -0.47625,-0.62125 0,-0.2275 0.10375,-0.59 0.25875,-0.9925 l 0.71375,-1.8525" id="path3266" style="fill:#0067a6;fill-opacity:1;fill-rule:nonzero;stroke:none"/>
    <path d="m 283.6042,481.1479 c 0,0.32125 -0.2275,0.6525 -0.54875,0.6525 -0.26875,0 -0.3725,-0.2075 -0.3725,-0.3925 0,-0.22875 0.15625,-0.6525 0.56,-0.6525 0.2375,0 0.36125,0.16625 0.36125,0.3925 z m -1.32375,2.95 c 0.0513,-0.115 0.0513,-0.19625 -0.0212,-0.19625 -0.0725,0 -0.34125,0.12375 -0.85875,0.5475 -0.0937,-0.01 -0.155,-0.0913 -0.135,-0.17625 0.56875,-0.65125 1.36625,-1.03375 1.7075,-1.03375 0.0737,0 0.125,0.0613 0.165,0.10375 0.0625,0.0625 0.0625,0.15375 -0.0612,0.455 l -1.2325,2.93875 c -0.04,0.10375 -0.0512,0.2275 0.0312,0.2275 0.17625,0 0.725,-0.36125 1.0775,-0.765 0.1025,0.01 0.155,0.0813 0.155,0.175 -0.155,0.30125 -1.22125,1.2325 -1.935,1.2325 -0.0525,0 -0.11375,-0.0312 -0.16625,-0.0937 -0.0625,-0.0725 -0.0925,-0.165 -0.0413,-0.28 l 1.315,-3.135" id="path3268" style="fill:#0067a6;fill-opacity:1;fill-rule:nonzero;stroke:none"/>
    <path d="m 285.6642,484.1804 c -0.6625,0.59125 -1.29375,1.94625 -1.29375,2.68 0,0.125 0.0625,0.1975 0.155,0.1975 0.10375,0 0.41375,-0.13375 1.00375,-0.6725 0.7875,-0.735 1.22125,-1.62625 1.3875,-2.23625 -0.0725,-0.19625 -0.24875,-0.37125 -0.5175,-0.37125 -0.24875,0 -0.41375,0.1125 -0.735,0.4025 z m 1.80125,-1.18 c 0.175,-0.0813 0.44375,0.0213 0.50625,0.155 -0.155,0.38375 -1.055,2.67125 -1.38625,3.6125 -0.0625,0.17625 -0.0125,0.23875 0.0725,0.23875 0.175,0 0.47625,-0.17625 1.065,-0.69375 0.0725,0 0.145,0.0512 0.145,0.13375 -0.43375,0.58 -1.16875,1.16 -1.73875,1.16 -0.2375,0 -0.29875,-0.19625 -0.29875,-0.28 0,-0.0725 0.02,-0.16625 0.1025,-0.4025 l 0.34125,-0.93125 -0.03,-0.0113 c -0.735,0.91 -1.79125,1.625 -2.2775,1.625 -0.28875,0 -0.455,-0.29 -0.455,-0.58 0,-0.2375 0.2275,-1.06625 0.91125,-2.0075 0.49625,-0.6825 0.94125,-1.09625 1.365,-1.335 0.40375,-0.2275 0.6625,-0.3 0.93125,-0.3 0.11375,0 0.1875,0.0312 0.24875,0.0613 0.0413,0.0213 0.155,0.115 0.20625,0.2175 l 0.29125,-0.6625" id="path3270" style="fill:#0067a6;fill-opacity:1;fill-rule:nonzero;stroke:none"/>
    <path d="m 290.2592,483.8804 -0.9325,2.7225 c -0.0613,0.19625 -0.0125,0.2575 0.0725,0.2575 0.15625,0 0.83875,-0.5375 1.18125,-0.93125 0.1025,0 0.165,0.0638 0.14375,0.1875 -0.57875,0.85875 -1.5525,1.49 -1.98625,1.49 -0.145,0 -0.28,-0.15625 -0.28,-0.28 0,-0.135 0.0412,-0.27875 0.145,-0.59 l 0.9725,-2.85625 -0.8075,0 c -0.02,-0.1025 0.0125,-0.24875 0.115,-0.29 l 0.8275,-0.145 0.58,-1.025 c 0.1025,-0.0612 0.30875,-0.04 0.3925,0.0638 l -0.30125,1.0125 1.12875,0 c 0.0725,0.105 0.0125,0.31125 -0.12375,0.38375 l -1.1275,0" id="path3272" style="fill:#0067a6;fill-opacity:1;fill-rule:nonzero;stroke:none"/>
    <path d="m 294.01545,481.1479 c 0,0.32125 -0.2275,0.6525 -0.54875,0.6525 -0.26875,0 -0.3725,-0.2075 -0.3725,-0.3925 0,-0.22875 0.155,-0.6525 0.55875,-0.6525 0.23875,0 0.3625,0.16625 0.3625,0.3925 z m -1.325,2.95 c 0.0525,-0.115 0.0525,-0.19625 -0.0213,-0.19625 -0.0712,0 -0.34125,0.12375 -0.8575,0.5475 -0.0937,-0.01 -0.15625,-0.0913 -0.135,-0.17625 0.56875,-0.65125 1.36625,-1.03375 1.7075,-1.03375 0.0725,0 0.125,0.0613 0.16625,0.10375 0.0612,0.0625 0.0612,0.15375 -0.0625,0.455 l -1.23125,2.93875 c -0.0425,0.10375 -0.0525,0.2275 0.03,0.2275 0.17625,0 0.725,-0.36125 1.07625,-0.765 0.10375,0.01 0.15625,0.0813 0.15625,0.175 -0.15625,0.30125 -1.22125,1.2325 -1.93625,1.2325 -0.0512,0 -0.1125,-0.0312 -0.16625,-0.0937 -0.0612,-0.0725 -0.0913,-0.165 -0.04,-0.28 l 1.31375,-3.135" id="path3274" style="fill:#0067a6;fill-opacity:1;fill-rule:nonzero;stroke:none"/>
    <path d="m 295.5467,485.47415 0.0325,0.0213 c 0.73375,-1.11875 1.75875,-2.25625 2.535,-2.25625 0.4025,0 0.57875,0.2175 0.57875,0.55875 0,0.165 -0.0825,0.4875 -0.165,0.72375 -0.18625,0.51875 -0.93125,2.205 -0.9625,2.2875 -0.0412,0.10375 -0.0525,0.1975 0.02,0.1975 0.17625,0 0.6725,-0.34125 0.97375,-0.705 0.145,-0.0213 0.165,0.0625 0.165,0.145 -0.3925,0.6625 -1.21125,1.16 -1.77875,1.16 -0.0937,0 -0.24875,-0.135 -0.24875,-0.25875 0,-0.0937 0.03,-0.16625 0.24875,-0.6825 0.21625,-0.50875 0.59875,-1.5225 0.8375,-2.03875 0.0825,-0.1875 0.2175,-0.55 0.2175,-0.75625 0,-0.12375 -0.0125,-0.24875 -0.16625,-0.24875 -0.24875,0 -0.85875,0.51875 -1.4275,1.23125 -0.54875,0.68375 -0.9725,1.49125 -1.58375,2.63 -0.0525,0.0925 -0.0937,0.12375 -0.18625,0.12375 -0.11375,0 -0.39375,-0.0312 -0.3,-0.26875 0.0512,-0.135 1.14875,-3.11625 1.2,-3.26125 0.0512,-0.13375 0.0512,-0.2375 -0.03,-0.2375 -0.23875,0 -0.6,0.2175 -0.9425,0.51875 -0.0825,0 -0.135,-0.0725 -0.125,-0.1575 0.395,-0.5375 1.025,-0.96125 1.54375,-0.96125 0.2475,0 0.36125,0.185 0.26875,0.42375 l -0.705,1.81125" id="path3276" style="fill:#0067a6;fill-opacity:1;fill-rule:nonzero;stroke:none"/>
    <path d="m 300.84545,483.9629 c -0.40375,0.46625 -0.93125,1.3775 -0.93125,1.90375 0,0.21875 0.145,0.3625 0.31,0.3625 0.145,0 0.39375,-0.0613 0.6825,-0.4025 0.58,-0.68375 0.9425,-1.605 0.9425,-1.93625 0,-0.21625 -0.155,-0.35125 -0.31125,-0.35125 -0.175,0 -0.37125,0.0725 -0.6925,0.42375 z m 0.77625,5.2375 c 0,-0.175 -0.11375,-0.405 -0.445,-0.63125 -0.435,-0.29 -0.7975,-0.49625 -0.9625,-0.5175 -0.25875,-0.0312 -0.6625,0.16625 -0.9625,0.3825 -0.28,0.2075 -0.3925,0.43375 -0.3925,0.6725 0,0.48625 0.6925,0.7975 1.39625,0.7975 0.47625,0 1.36625,-0.2075 1.36625,-0.70375 z m 0.37125,-5.8675 c 0.115,0.04 0.2075,0.0913 0.25,0.0913 0.0925,0 0.3,-0.009 0.4975,-0.0612 0.19625,-0.0513 0.3925,-0.0838 0.465,-0.0838 0.145,0 0.21625,0.105 0.21625,0.26 0,0.23875 -0.12375,0.32 -0.2275,0.32 -0.10375,0 -0.24875,-0.03 -0.34125,-0.0512 -0.0925,-0.03 -0.31,-0.0613 -0.3825,-0.0613 -0.0525,0 -0.10375,0.0312 -0.0937,0.0613 0.0212,0.0825 0.0725,0.24875 0.0725,0.3925 0,0.84 -0.6,1.62625 -1.31375,2.07125 -0.11375,0.0725 -0.50625,0.20625 -0.735,0.26875 -0.11375,0.0625 -0.2275,0.20625 -0.2275,0.3625 0,0.12375 0.0725,0.31125 0.34125,0.48625 0.23875,0.16625 0.64125,0.39375 1.01375,0.62 0.6,0.35375 0.7775,0.67375 0.7775,1.00375 0,0.58 -0.83875,1.2325 -2.52625,1.2325 -0.755,0 -1.635,-0.29 -1.635,-0.9825 0,-0.7875 1.21125,-1.28375 1.77,-1.45875 -0.26875,-0.17625 -0.33125,-0.3325 -0.33125,-0.4775 0,-0.18625 0.32,-0.61 0.46625,-0.79625 -0.1975,-0.0525 -0.75625,-0.2375 -0.75625,-0.9325 0,-0.57875 0.32125,-1.2825 0.83875,-1.73875 0.4975,-0.42375 0.9825,-0.62 1.53125,-0.62 0.10375,0 0.2175,0.0512 0.33,0.0937" id="path3278" style="fill:#0067a6;fill-opacity:1;fill-rule:nonzero;stroke:none"/>
    <path d="m 307.1892,480.9729 c -0.0725,-0.0625 -0.0413,-0.1875 0.0312,-0.24875 0.445,-0.0725 1.055,-0.12375 1.73875,-0.12375 1.02375,0 1.67625,0.19625 2.04875,0.50625 0.41375,0.3525 0.57,0.7875 0.57,1.28375 0,0.6925 -0.38375,1.23125 -0.88,1.58375 -0.52875,0.3625 -1.325,0.52875 -1.915,0.52875 -0.0825,-0.0325 -0.0937,-0.145 -0.0312,-0.2175 0.76625,-0.0937 1.95625,-0.65375 1.95625,-2.06125 0,-0.9 -0.58,-1.3025 -1.3975,-1.3025 -0.33125,0 -0.35125,0.0412 -0.455,0.36125 l -1.45875,4.68875 c -0.3,0.96125 -0.33125,1.18875 0.19625,1.23125 l 0.3725,0.03 c 0.0625,0.0725 0.0312,0.2175 -0.0412,0.26 -0.49625,-0.0213 -0.85875,-0.0312 -1.35625,-0.0312 -0.42375,0 -0.775,0.01 -1.19,0.0312 -0.0825,-0.0525 -0.0825,-0.19625 -0.0125,-0.26 l 0.32125,-0.03 c 0.49625,-0.0512 0.6,-0.17625 0.93125,-1.23125 l 1.335,-4.285 c 0.155,-0.49625 0.11375,-0.6325 -0.26875,-0.6725 l -0.4975,-0.0412" id="path3280" style="fill:#0067a6;fill-opacity:1;fill-rule:nonzero;stroke:none"/>
    <path d="m 312.27045,484.1804 c -0.6625,0.59125 -1.29375,1.94625 -1.29375,2.68 0,0.125 0.0625,0.1975 0.155,0.1975 0.10375,0 0.415,-0.13375 1.00375,-0.6725 0.7875,-0.735 1.22125,-1.62625 1.3875,-2.23625 -0.0725,-0.19625 -0.2475,-0.37125 -0.5175,-0.37125 -0.24875,0 -0.41375,0.1125 -0.735,0.4025 z m 1.80125,-1.18 c 0.175,-0.0813 0.445,0.0213 0.50625,0.155 -0.155,0.38375 -1.055,2.67125 -1.38625,3.6125 -0.0625,0.17625 -0.0125,0.23875 0.0725,0.23875 0.17625,0 0.47625,-0.17625 1.06625,-0.69375 0.0725,0 0.145,0.0512 0.145,0.13375 -0.435,0.58 -1.17,1.16 -1.74,1.16 -0.2375,0 -0.3,-0.19625 -0.3,-0.28 0,-0.0725 0.0213,-0.16625 0.10375,-0.4025 l 0.34125,-0.93125 -0.03,-0.0113 c -0.735,0.91 -1.79125,1.625 -2.2775,1.625 -0.28875,0 -0.455,-0.29 -0.455,-0.58 0,-0.2375 0.2275,-1.06625 0.91125,-2.0075 0.49625,-0.6825 0.94125,-1.09625 1.365,-1.335 0.405,-0.2275 0.6625,-0.3 0.9325,-0.3 0.11375,0 0.185,0.0312 0.2475,0.0613 0.0425,0.0213 0.15625,0.115 0.2075,0.2175 l 0.29,-0.6625" id="path3282" style="fill:#0067a6;fill-opacity:1;fill-rule:nonzero;stroke:none"/>
    <path d="m 317.47545,481.1479 c 0,0.32125 -0.2275,0.6525 -0.54875,0.6525 -0.26875,0 -0.37125,-0.2075 -0.37125,-0.3925 0,-0.22875 0.155,-0.6525 0.55875,-0.6525 0.2375,0 0.36125,0.16625 0.36125,0.3925 z m -1.32375,2.95 c 0.0512,-0.115 0.0512,-0.19625 -0.0212,-0.19625 -0.0725,0 -0.34125,0.12375 -0.85875,0.5475 -0.0937,-0.01 -0.155,-0.0913 -0.135,-0.17625 0.56875,-0.65125 1.36625,-1.03375 1.70875,-1.03375 0.0712,0 0.12375,0.0613 0.165,0.10375 0.0613,0.0625 0.0613,0.15375 -0.0625,0.455 l -1.23125,2.93875 c -0.0412,0.10375 -0.0525,0.2275 0.0312,0.2275 0.17625,0 0.72375,-0.36125 1.07625,-0.765 0.1025,0.01 0.155,0.0813 0.155,0.175 -0.155,0.30125 -1.22125,1.2325 -1.935,1.2325 -0.0525,0 -0.11375,-0.0312 -0.16625,-0.0937 -0.0625,-0.0725 -0.0925,-0.165 -0.0413,-0.28 l 1.315,-3.135" id="path3284" style="fill:#0067a6;fill-opacity:1;fill-rule:nonzero;stroke:none"/>
    <path d="m 319.00795,485.47415 0.0312,0.0213 c 0.73375,-1.11875 1.75875,-2.25625 2.535,-2.25625 0.40375,0 0.58,0.2175 0.58,0.55875 0,0.165 -0.0837,0.4875 -0.16625,0.72375 -0.18625,0.51875 -0.93125,2.205 -0.9625,2.2875 -0.0413,0.10375 -0.0512,0.1975 0.0212,0.1975 0.17625,0 0.6725,-0.34125 0.9725,-0.705 0.145,-0.0213 0.165,0.0625 0.165,0.145 -0.3925,0.6625 -1.21,1.16 -1.77875,1.16 -0.0937,0 -0.24875,-0.135 -0.24875,-0.25875 0,-0.0937 0.0312,-0.16625 0.24875,-0.6825 0.21625,-0.50875 0.6,-1.5225 0.8375,-2.03875 0.0825,-0.1875 0.2175,-0.55 0.2175,-0.75625 0,-0.12375 -0.0125,-0.24875 -0.16625,-0.24875 -0.2475,0 -0.85875,0.51875 -1.42875,1.23125 -0.5475,0.68375 -0.97125,1.49125 -1.5825,2.63 -0.0525,0.0925 -0.0925,0.12375 -0.18625,0.12375 -0.11375,0 -0.39375,-0.0312 -0.3,-0.26875 0.0513,-0.135 1.14875,-3.11625 1.20125,-3.26125 0.0513,-0.13375 0.0513,-0.2375 -0.0312,-0.2375 -0.23875,0 -0.60125,0.2175 -0.9425,0.51875 -0.0825,0 -0.13375,-0.0725 -0.12375,-0.1575 0.39375,-0.5375 1.02375,-0.96125 1.5425,-0.96125 0.2475,0 0.36125,0.185 0.26875,0.42375 l -0.70375,1.81125" id="path3286" style="fill:#0067a6;fill-opacity:1;fill-rule:nonzero;stroke:none"/>
    <path d="m 330.42295,483.62165 c -0.11375,0.425 -0.11375,0.435 0.4125,0.435 1.07875,0 2.16375,-0.735 2.185,-1.8725 0.0312,-0.80875 -0.46625,-1.2625 -1.35625,-1.2625 -0.40375,0 -0.43375,0.0612 -0.5175,0.33 l -0.72375,2.37 z m -0.31125,-1.52125 c 0.31125,-0.9825 0.25875,-1.0975 -0.0925,-1.1175 l -0.3925,-0.0412 c -0.0525,-0.0838 -0.0425,-0.2175 0.0512,-0.25875 0.58875,-0.0725 1.17875,-0.0825 1.75875,-0.0825 0.99375,0 1.59375,0.20625 1.95625,0.5375 0.3625,0.32125 0.47625,0.745 0.47625,1.18 0,1.045 -0.99375,1.6975 -1.78,1.83125 -0.145,0.0212 -0.16625,0.0725 -0.12375,0.24875 0.13375,0.55875 0.33,1.2425 0.5175,1.79125 0.2375,0.6925 0.35,1.0025 1.02375,1.07625 0.0725,0.04 0.0212,0.16375 0,0.19625 -0.16625,0.0212 -0.34125,0.0312 -0.6525,0.0312 -0.49625,0 -0.78625,-0.0937 -0.96125,-0.61125 -0.26,-0.765 -0.44625,-1.36625 -0.61125,-2.0075 -0.12375,-0.47625 -0.18625,-0.51625 -0.5175,-0.51625 -0.53875,0 -0.59,0.03 -0.6825,0.33 l -0.40375,1.28375 c -0.31125,0.96125 -0.3325,1.15875 0.20625,1.23125 l 0.24875,0.03 c 0.0625,0.0725 0.0312,0.2175 -0.0413,0.26 -0.435,-0.0213 -0.82875,-0.0312 -1.2425,-0.0312 -0.42375,0 -0.77625,0.01 -1.09625,0.0312 -0.0825,-0.0525 -0.0825,-0.19625 -0.0125,-0.26 l 0.2275,-0.03 c 0.49625,-0.0625 0.6,-0.17625 0.93,-1.23125 l 1.21135,-3.87125" id="path3288" style="fill:#0067a6;fill-opacity:1;fill-rule:nonzero;stroke:none"/>
    <path d="m 335.6592,484.05665 c -0.405,0.43375 -0.6425,0.91125 -0.76625,1.21125 0.6825,-0.2075 1.00375,-0.405 1.38625,-0.765 0.32125,-0.3025 0.405,-0.6125 0.405,-0.705 0,-0.105 -0.0512,-0.2375 -0.23875,-0.2375 -0.145,0 -0.41375,0.0925 -0.78625,0.49625 z m 1.645,-0.1975 c 0,0.78625 -1.025,1.305 -2.515,1.71875 -0.0725,0.17625 -0.145,0.5075 -0.145,0.92125 0,0.3525 0.2175,0.58875 0.4975,0.58875 0.3725,0 0.63,-0.20625 1.08625,-0.59875 0.0937,0 0.155,0.0825 0.135,0.17625 -0.63125,0.775 -1.22125,0.94125 -1.65625,0.94125 -0.62125,0 -0.83875,-0.58 -0.83875,-1.0875 0,-0.6525 0.41375,-1.91375 1.5425,-2.78375 0.53875,-0.41375 0.94125,-0.49625 1.24125,-0.49625 0.41375,0 0.6525,0.35125 0.6525,0.62" id="path3290" style="fill:#0067a6;fill-opacity:1;fill-rule:nonzero;stroke:none"/>
    <path d="m 339.9442,483.82915 c 0,0.16625 -0.105,0.27875 -0.18625,0.32 -0.0725,0.0212 -0.135,0 -0.1975,-0.0825 -0.175,-0.17625 -0.31,-0.33125 -0.63125,-0.33125 -0.3,0 -0.42375,0.26 -0.42375,0.41375 0,0.2175 0.0512,0.435 0.35125,0.9425 0.26,0.43375 0.415,0.6925 0.39375,1.14875 -0.0125,0.27875 -0.155,0.6625 -0.5375,0.9925 -0.27,0.23875 -0.65375,0.37375 -1.04625,0.37375 -0.39375,0 -0.63125,-0.31 -0.63125,-0.54875 0,-0.1025 0.0412,-0.2175 0.15625,-0.34125 0.0812,-0.0725 0.19625,-0.0725 0.27875,0 0.135,0.15625 0.44375,0.41375 0.71375,0.41375 0.24875,0 0.4975,-0.2575 0.4975,-0.59 0,-0.17625 -0.125,-0.49625 -0.38375,-0.91 -0.26875,-0.435 -0.3625,-0.7875 -0.3625,-0.96375 0,-0.4025 0.1775,-0.70375 0.62125,-1.08625 0.3,-0.25875 0.63125,-0.34125 0.76625,-0.34125 0.38375,0 0.62125,0.33 0.62125,0.59" id="path3292" style="fill:#0067a6;fill-opacity:1;fill-rule:nonzero;stroke:none"/>
    <path d="m 342.0642,483.8804 -0.93125,2.7225 c -0.0613,0.19625 -0.0125,0.2575 0.0725,0.2575 0.15625,0 0.84,-0.5375 1.18125,-0.93125 0.1025,0 0.165,0.0638 0.14375,0.1875 -0.57875,0.85875 -1.55125,1.49 -1.98625,1.49 -0.145,0 -0.27875,-0.15625 -0.27875,-0.28 0,-0.135 0.04,-0.27875 0.145,-0.59 l 0.97125,-2.85625 -0.8075,0 c -0.02,-0.1025 0.0125,-0.24875 0.115,-0.29 l 0.8275,-0.145 0.58,-1.025 c 0.10375,-0.0612 0.31,-0.04 0.3925,0.0638 l -0.3,1.0125 1.12875,0 c 0.0725,0.105 0.0125,0.31125 -0.12375,0.38375 l -1.13,0" id="path3294" style="fill:#0067a6;fill-opacity:1;fill-rule:nonzero;stroke:none"/>
    <path d="m 344.8592,484.04665 c -0.6,0.80625 -1.00375,2.03875 -1.03375,2.5875 -0.0213,0.3625 0.12375,0.6625 0.42375,0.6625 0.2275,0 0.48625,-0.0937 0.81625,-0.53875 0.45625,-0.61125 0.9425,-1.97625 0.96375,-2.52625 0.0125,-0.32125 -0.0513,-0.6825 -0.41375,-0.6825 -0.2075,0 -0.45625,0.0925 -0.75625,0.4975 z m 1.88375,0.49625 c -0.0312,0.57 -0.33,1.5625 -1.0975,2.34875 -0.64125,0.66375 -1.2,0.715 -1.47875,0.715 -0.66375,0 -1.0975,-0.48625 -1.035,-1.3775 0.0412,-0.64125 0.42375,-1.645 1.1275,-2.31875 0.53875,-0.51625 1.005,-0.67125 1.42875,-0.67125 0.735,0 1.0975,0.5475 1.055,1.30375" id="path3296" style="fill:#0067a6;fill-opacity:1;fill-rule:nonzero;stroke:none"/>
    <path d="m 348.42045,484.22165 -0.4475,1.30375 0.0538,0 c 0.31,-0.57875 0.8175,-1.40625 1.08625,-1.7475 0.23875,-0.31125 0.49625,-0.53875 0.755,-0.53875 0.36375,0 0.41375,0.35125 0.41375,0.5075 0,0.155 -0.0925,0.45375 -0.21625,0.62 -0.125,0.155 -0.29,0.16625 -0.3325,-0.0512 -0.0512,-0.26875 -0.1125,-0.405 -0.21625,-0.405 -0.0925,0 -0.2075,0.105 -0.3625,0.31125 -0.63125,0.8075 -1.21125,2.07125 -1.75875,3.26125 -0.0425,0.0825 -0.0937,0.12375 -0.1775,0.12375 -0.1125,0 -0.41375,-0.0412 -0.34125,-0.26875 0.135,-0.41375 0.7875,-2.24625 1.06625,-3.26125 0.03,-0.11375 0.0125,-0.2175 -0.0813,-0.2175 -0.27,0 -0.55,0.29 -0.735,0.53875 -0.105,0.0213 -0.1775,-0.04 -0.16625,-0.16625 0.33,-0.5575 0.725,-0.9925 1.22125,-0.9925 0.5175,0 0.33,0.70375 0.23875,0.9825" id="path3298" style="fill:#0067a6;fill-opacity:1;fill-rule:nonzero;stroke:none"/>
    <path d="m 352.93045,481.1479 c 0,0.32125 -0.22625,0.6525 -0.5475,0.6525 -0.27,0 -0.3725,-0.2075 -0.3725,-0.3925 0,-0.22875 0.155,-0.6525 0.55875,-0.6525 0.2375,0 0.36125,0.16625 0.36125,0.3925 z m -1.32375,2.95 c 0.0513,-0.115 0.0513,-0.19625 -0.0213,-0.19625 -0.0725,0 -0.34125,0.12375 -0.85875,0.5475 -0.0925,-0.01 -0.155,-0.0913 -0.13375,-0.17625 0.56875,-0.65125 1.36625,-1.03375 1.70875,-1.03375 0.0725,0 0.12375,0.0613 0.16375,0.10375 0.0625,0.0625 0.0625,0.15375 -0.0613,0.455 l -1.2325,2.93875 c -0.04,0.10375 -0.0512,0.2275 0.0312,0.2275 0.17625,0 0.72375,-0.36125 1.07625,-0.765 0.10375,0.01 0.155,0.0813 0.155,0.175 -0.155,0.30125 -1.22125,1.2325 -1.935,1.2325 -0.0513,0 -0.11375,-0.0312 -0.165,-0.0937 -0.0625,-0.0725 -0.0937,-0.165 -0.0425,-0.28 l 1.315,-3.135" id="path3300" style="fill:#0067a6;fill-opacity:1;fill-rule:nonzero;stroke:none"/>
    <path d="m 354.0492,485.47415 0.0312,0.0213 c 0.735,-1.11875 1.76,-2.25625 2.535,-2.25625 0.40375,0 0.58,0.2175 0.58,0.55875 0,0.165 -0.0825,0.4875 -0.16625,0.72375 -0.185,0.51875 -0.93125,2.205 -0.96125,2.2875 -0.0425,0.10375 -0.0525,0.1975 0.02,0.1975 0.17625,0 0.6725,-0.34125 0.97375,-0.705 0.145,-0.0213 0.16375,0.0625 0.16375,0.145 -0.3925,0.6625 -1.21,1.16 -1.77875,1.16 -0.0925,0 -0.24875,-0.135 -0.24875,-0.25875 0,-0.0937 0.0312,-0.16625 0.24875,-0.6825 0.21625,-0.50875 0.6,-1.5225 0.83875,-2.03875 0.0812,-0.1875 0.21625,-0.55 0.21625,-0.75625 0,-0.12375 -0.0125,-0.24875 -0.165,-0.24875 -0.24875,0 -0.85875,0.51875 -1.42875,1.23125 -0.54875,0.68375 -0.9725,1.49125 -1.5825,2.63 -0.0538,0.0925 -0.0937,0.12375 -0.18625,0.12375 -0.115,0 -0.39375,-0.0312 -0.3,-0.26875 0.0512,-0.135 1.14875,-3.11625 1.2,-3.26125 0.0513,-0.13375 0.0513,-0.2375 -0.0312,-0.2375 -0.2375,0 -0.6,0.2175 -0.9425,0.51875 -0.0813,0 -0.135,-0.0725 -0.12375,-0.1575 0.39375,-0.5375 1.025,-0.96125 1.54125,-0.96125 0.24875,0 0.36375,0.185 0.27,0.42375 l -0.70375,1.81125" id="path3302" style="fill:#0067a6;fill-opacity:1;fill-rule:nonzero;stroke:none"/>
    <path d="m 359.5542,483.9629 c -0.40375,0.46625 -0.93125,1.3775 -0.93125,1.90375 0,0.21875 0.145,0.3625 0.31125,0.3625 0.14375,0 0.3925,-0.0613 0.6825,-0.4025 0.58,-0.68375 0.9425,-1.605 0.9425,-1.93625 0,-0.21625 -0.15625,-0.35125 -0.31125,-0.35125 -0.175,0 -0.37125,0.0725 -0.69375,0.42375 z m 0.77625,5.2375 c 0,-0.175 -0.11375,-0.405 -0.445,-0.63125 -0.435,-0.29 -0.7975,-0.49625 -0.9625,-0.5175 -0.25875,-0.0312 -0.6625,0.16625 -0.9625,0.3825 -0.27875,0.2075 -0.39375,0.43375 -0.39375,0.6725 0,0.48625 0.69375,0.7975 1.3975,0.7975 0.47625,0 1.36625,-0.2075 1.36625,-0.70375 z m 0.3725,-5.8675 c 0.11375,0.04 0.2075,0.0913 0.24875,0.0913 0.0925,0 0.3,-0.009 0.49625,-0.0612 0.19625,-0.0513 0.39375,-0.0838 0.46625,-0.0838 0.14375,0 0.2175,0.105 0.2175,0.26 0,0.23875 -0.125,0.32 -0.2275,0.32 -0.105,0 -0.25,-0.03 -0.34125,-0.0512 -0.0937,-0.03 -0.31125,-0.0613 -0.38375,-0.0613 -0.0512,0 -0.10375,0.0312 -0.0937,0.0613 0.0213,0.0825 0.0725,0.24875 0.0725,0.3925 0,0.84 -0.59875,1.62625 -1.31375,2.07125 -0.11375,0.0725 -0.50625,0.20625 -0.735,0.26875 -0.11375,0.0625 -0.2275,0.20625 -0.2275,0.3625 0,0.12375 0.0725,0.31125 0.34125,0.48625 0.23875,0.16625 0.64125,0.39375 1.01375,0.62 0.60125,0.35375 0.77625,0.67375 0.77625,1.00375 0,0.58 -0.8375,1.2325 -2.52375,1.2325 -0.75625,0 -1.635,-0.29 -1.635,-0.9825 0,-0.7875 1.21,-1.28375 1.76875,-1.45875 -0.26875,-0.17625 -0.33125,-0.3325 -0.33125,-0.4775 0,-0.18625 0.32125,-0.61 0.46625,-0.79625 -0.19625,-0.0525 -0.755,-0.2375 -0.755,-0.9325 0,-0.57875 0.32,-1.2825 0.8375,-1.73875 0.4975,-0.42375 0.9825,-0.62 1.53125,-0.62 0.10375,0 0.2175,0.0512 0.33125,0.0937" id="path3304" style="fill:#0067a6;fill-opacity:1;fill-rule:nonzero;stroke:none"/>
    <path d="m 369.9142,483.7054 c 0.475,0 0.475,-0.0125 0.5475,-0.2275 l 0.425,-1.35625 c 0.3,-0.97375 0.33125,-1.13875 -0.22875,-1.22125 l -0.2575,-0.0425 c -0.0513,-0.0725 -0.0413,-0.2175 0.0613,-0.2575 0.425,0.0213 0.76625,0.0312 1.21125,0.0312 0.42375,0 0.745,-0.01 1.20125,-0.0312 0.0725,0.04 0.0925,0.19625 0,0.2575 l -0.2488,0.0425 c -0.58,0.0925 -0.6425,0.19625 -0.9625,1.22125 l -1.20125,3.85 c -0.29875,0.96125 -0.33,1.16875 0.19625,1.23125 l 0.28,0.03 c 0.0625,0.105 0.0312,0.2175 -0.0413,0.26 -0.48625,-0.0213 -0.8175,-0.0312 -1.2625,-0.0312 -0.43375,0 -0.775,0.01 -1.20125,0.0312 -0.0813,-0.0525 -0.0813,-0.1875 -0.0125,-0.26 l 0.33,-0.03 c 0.48625,-0.0512 0.59125,-0.17625 0.9325,-1.23125 l 0.49625,-1.57375 c 0.0937,-0.27 0.0725,-0.27875 -0.3725,-0.27875 l -2.81625,0 c -0.33,0 -0.32,0.03 -0.3925,0.2475 l -0.5075,1.605 c -0.30875,0.96125 -0.33,1.18 0.19625,1.23125 l 0.3225,0.03 c 0.0613,0.0838 0.0312,0.2175 -0.0412,0.26 -0.5075,-0.0213 -0.85875,-0.0312 -1.305,-0.0312 -0.42375,0 -0.775,0.01 -1.1075,0.0312 -0.0825,-0.0525 -0.0825,-0.1875 -0.0125,-0.26 l 0.2375,-0.03 c 0.4975,-0.0625 0.60125,-0.17625 0.9325,-1.23125 l 1.21,-3.85 c 0.31125,-0.97375 0.33125,-1.13875 -0.23875,-1.22125 l -0.2475,-0.0425 c -0.0613,-0.0925 -0.0513,-0.2175 0.0625,-0.2575 0.41375,0.0213 0.765,0.0312 1.2,0.0312 0.445,0 0.76625,-0.01 1.20125,-0.0312 0.0712,0.04 0.0925,0.17625 0,0.2575 l -0.23875,0.0425 c -0.59,0.0925 -0.63125,0.19625 -0.9625,1.22125 l -0.42375,1.335 c -0.0725,0.23625 -0.0725,0.24875 0.3,0.24875 l 2.7325,0" id="path3306" style="fill:#0067a6;fill-opacity:1;fill-rule:nonzero;stroke:none"/>
    <path d="m 373.23545,484.05665 c -0.40375,0.43375 -0.6425,0.91125 -0.76625,1.21125 0.68375,-0.2075 1.00375,-0.405 1.3875,-0.765 0.32,-0.3025 0.40375,-0.6125 0.40375,-0.705 0,-0.105 -0.0513,-0.2375 -0.23875,-0.2375 -0.145,0 -0.41375,0.0925 -0.78625,0.49625 z m 1.645,-0.1975 c 0,0.78625 -1.02375,1.305 -2.51375,1.71875 -0.0725,0.17625 -0.14625,0.5075 -0.14625,0.92125 0,0.3525 0.2175,0.58875 0.4975,0.58875 0.3725,0 0.63125,-0.20625 1.08625,-0.59875 0.0937,0 0.155,0.0825 0.13625,0.17625 -0.6325,0.775 -1.2225,0.94125 -1.65625,0.94125 -0.6225,0 -0.84,-0.58 -0.84,-1.0875 0,-0.6525 0.41375,-1.91375 1.54375,-2.78375 0.5375,-0.41375 0.94,-0.49625 1.24,-0.49625 0.415,0 0.6525,0.35125 0.6525,0.62" id="path3308" style="fill:#0067a6;fill-opacity:1;fill-rule:nonzero;stroke:none"/>
    <path d="m 376.72295,484.1804 c -0.66125,0.59125 -1.2925,1.94625 -1.2925,2.68 0,0.125 0.0612,0.1975 0.15375,0.1975 0.105,0 0.415,-0.13375 1.005,-0.6725 0.7875,-0.735 1.22,-1.62625 1.38625,-2.23625 -0.0725,-0.19625 -0.2475,-0.37125 -0.51625,-0.37125 -0.25,0 -0.415,0.1125 -0.73625,0.4025 z m 1.80125,-1.18 c 0.17625,-0.0813 0.445,0.0213 0.50625,0.155 -0.155,0.38375 -1.055,2.67125 -1.385,3.6125 -0.0625,0.17625 -0.0125,0.23875 0.0725,0.23875 0.175,0 0.475,-0.17625 1.065,-0.69375 0.0725,0 0.145,0.0512 0.145,0.13375 -0.43625,0.58 -1.17,1.16 -1.73875,1.16 -0.23875,0 -0.3,-0.19625 -0.3,-0.28 0,-0.0725 0.0213,-0.16625 0.10375,-0.4025 l 0.34125,-0.93125 -0.0312,-0.0113 c -0.73375,0.91 -1.79,1.625 -2.27625,1.625 -0.29,0 -0.455,-0.29 -0.455,-0.58 0,-0.2375 0.22625,-1.06625 0.91,-2.0075 0.49625,-0.6825 0.9425,-1.09625 1.36625,-1.335 0.40375,-0.2275 0.6625,-0.3 0.93125,-0.3 0.11375,0 0.18625,0.0312 0.2475,0.0613 0.0425,0.0213 0.15625,0.115 0.2075,0.2175 l 0.29,-0.6625" id="path3310" style="fill:#0067a6;fill-opacity:1;fill-rule:nonzero;stroke:none"/>
    <path d="m 380.23045,486.78915 c -0.0825,0.2375 -0.0712,0.34125 0.0425,0.34125 0.2275,0 0.71375,-0.5075 1.19,-1.045 0.10375,-0.0113 0.16625,0.0412 0.16625,0.14375 -0.26875,0.5175 -0.92125,1.3775 -1.78,1.3775 -0.31125,0 -0.405,-0.145 -0.405,-0.31 0,-0.16625 0.0525,-0.3525 0.2275,-0.88 l 1.64625,-4.89625 c 0.24875,-0.72375 0.145,-0.82875 -0.0125,-0.89875 l -0.185,-0.0838 c -0.0513,-0.0425 -0.0513,-0.13375 0,-0.16625 0.185,-0.0725 0.8275,-0.26875 1.30375,-0.30875 l 0.0513,0.0612 c -0.13375,0.37125 -0.23625,0.66125 -0.61,1.78 l -1.63625,4.885" id="path3312" style="fill:#0067a6;fill-opacity:1;fill-rule:nonzero;stroke:none"/>
    <path d="m 383.8642,483.8804 -0.93125,2.7225 c -0.0625,0.19625 -0.0125,0.2575 0.0725,0.2575 0.15375,0 0.8375,-0.5375 1.17875,-0.93125 0.1025,0 0.165,0.0638 0.145,0.1875 -0.58,0.85875 -1.5525,1.49 -1.98625,1.49 -0.145,0 -0.28,-0.15625 -0.28,-0.28 0,-0.135 0.0412,-0.27875 0.145,-0.59 l 0.9725,-2.85625 -0.80625,0 c -0.0213,-0.1025 0.0125,-0.24875 0.11375,-0.29 l 0.82625,-0.145 0.58,-1.025 c 0.10375,-0.0612 0.31125,-0.04 0.3925,0.0638 l -0.29875,1.0125 1.1275,0 c 0.0725,0.105 0.0125,0.31125 -0.12375,0.38375 l -1.1275,0" id="path3314" style="fill:#0067a6;fill-opacity:1;fill-rule:nonzero;stroke:none"/>
    <path d="m 386.75045,481.5204 c 0.22875,-0.68375 0.28,-0.82875 0.11375,-0.94125 l -0.21625,-0.145 c -0.0212,-0.0512 -0.0212,-0.0925 0.03,-0.135 0.16625,-0.0725 0.84875,-0.2175 1.21125,-0.23625 l 0.0425,0.0612 c -0.2075,0.58 -0.53875,1.52 -0.74625,2.11125 l -1.06625,3.105 0,-0.0112 0.0212,0.0212 c 0.72375,-1.025 1.2625,-1.44 1.635,-1.70875 0.37375,-0.26875 0.70375,-0.4025 0.98375,-0.4025 0.455,0 0.62,0.33 0.62,0.6925 0,0.71375 -0.44375,1.76 -0.80625,2.42125 -0.2075,0.35375 -0.405,0.58 -0.67375,0.85 -0.34125,0.34125 -0.62,0.40375 -0.755,0.40375 -0.3425,0 -0.3825,-0.2175 -0.3825,-0.30125 0,-0.175 0.145,-0.33 0.27875,-0.33 0.0412,0 0.0937,0.0213 0.145,0.0613 0.0825,0.0625 0.19625,0.13625 0.26875,0.13625 0.155,0 0.26,-0.15625 0.415,-0.51875 0.28,-0.6725 0.745,-2.1 0.745,-2.67125 0,-0.19625 -0.0725,-0.30875 -0.2175,-0.30875 -0.145,0 -0.3625,0.12375 -0.55875,0.27875 -0.435,0.3325 -0.77625,0.67375 -1.315,1.37625 -0.465,0.62125 -0.9825,1.62625 -1.25125,2.15375 -0.0425,0.0825 -0.0937,0.12375 -0.18625,0.12375 -0.115,0 -0.39375,-0.0312 -0.3,-0.26875 l 1.965,-5.8175" id="path3316" style="fill:#0067a6;fill-opacity:1;fill-rule:nonzero;stroke:none"/>
    <path d="m 397.0992,482.12165 c 0.31125,-0.97375 0.3225,-1.11875 -0.22625,-1.22125 l -0.20625,-0.0425 c -0.0637,-0.0812 -0.0538,-0.2175 0.06,-0.2575 0.1875,0.01 0.36375,0.0213 0.55,0.0213 0.185,0.01 0.38125,0.01 0.59875,0.01 l 1.95625,0 c 0.6625,0 1.14875,0 1.46,-0.0312 -0.0725,0.17625 -0.32125,1.00375 -0.42375,1.37625 -0.0413,0.0813 -0.22875,0.0725 -0.26,-0.01 0.0625,-0.53875 0.0937,-0.7975 -0.36125,-0.92125 -0.2375,-0.0625 -0.55875,-0.0937 -1.0975,-0.0937 l -0.61125,0 c -0.26875,0 -0.30875,0.0413 -0.4025,0.35125 l -0.6625,2.12125 c -0.0925,0.29 -0.10375,0.30125 0.185,0.30125 l 0.5175,0 c 0.985,0 1.19125,-0.0625 1.42875,-0.5075 l 0.16625,-0.31125 c 0.0413,-0.0713 0.23875,-0.06 0.2575,0.0213 -0.0725,0.17625 -0.2275,0.62125 -0.35125,1.00375 -0.11375,0.39375 -0.2175,0.77625 -0.26875,1.005 -0.0625,0.0825 -0.2175,0.0713 -0.25875,-0.0112 l 0,-0.28875 c 0,-0.53875 -0.26875,-0.54875 -1.065,-0.54875 l -0.51875,0 c -0.28875,0 -0.31,0.01 -0.4025,0.3 l -0.42375,1.39625 c -0.1775,0.58 -0.28,0.9325 -0.1775,1.14 0.0725,0.145 0.26875,0.21625 1.14875,0.21625 1.13875,0 1.5525,-0.0612 2.205,-1.075 0.0825,-0.0525 0.19625,-0.0325 0.2375,0.0612 -0.0925,0.3 -0.445,1.0875 -0.71375,1.36625 -0.3425,-0.01 -0.735,-0.0213 -1.14875,-0.0213 -0.40375,-0.01 -0.82875,-0.01 -1.22125,-0.01 l -1.22125,0 c -0.42375,0 -0.77625,0.01 -1.23125,0.0312 -0.0837,-0.0525 -0.0837,-0.19625 -0.0125,-0.26 l 0.36375,-0.03 c 0.495,-0.0425 0.6,-0.17625 0.93,-1.23125 l 1.2,-3.85" id="path3318" style="fill:#0067a6;fill-opacity:1;fill-rule:nonzero;stroke:none"/>
    <path d="m 401.9242,484.44915 c -0.12375,-0.30875 -0.18625,-0.48625 -0.29,-0.48625 -0.175,0 -0.33125,0.3225 -0.465,0.5275 -0.10375,0.0525 -0.19625,-0.009 -0.1875,-0.145 0.1875,-0.5675 0.67375,-1.10625 0.9325,-1.10625 0.17625,0 0.31,0.145 0.455,0.53875 l 0.44375,1.21 c 0.0937,-0.10375 0.1875,-0.2375 0.705,-0.8475 0.50625,-0.60125 0.83875,-0.90125 1.16875,-0.90125 0.28125,0 0.41375,0.2475 0.41375,0.48625 0,0.3625 -0.25625,0.6 -0.41375,0.6 -0.0725,0 -0.1125,-0.0613 -0.145,-0.17625 -0.04,-0.145 -0.1125,-0.25875 -0.2175,-0.25875 -0.185,0 -0.465,0.29 -1.39625,1.41875 l 0.38375,0.98375 c 0.145,0.36125 0.2475,0.58875 0.37125,0.58875 0.145,0 0.32125,-0.31 0.4875,-0.61 0.0725,-0.0825 0.22625,-0.0425 0.2175,0.0625 -0.145,0.6725 -0.5075,1.2725 -0.90125,1.2725 -0.2775,0 -0.435,-0.29 -0.61,-0.725 l -0.39375,-0.9825 c -0.165,0.16625 -0.48625,0.55875 -0.755,0.89 -0.60125,0.69375 -0.92125,0.8175 -1.1175,0.8175 -0.24875,0 -0.37375,-0.18625 -0.37375,-0.37375 0,-0.19625 0.115,-0.465 0.3,-0.62 0.115,-0.10375 0.17625,-0.11375 0.22875,-0.11375 0.0413,0 0.0925,0.0725 0.10375,0.135 0.04,0.185 0.10375,0.29 0.185,0.29 0.0838,0 0.22875,-0.125 0.415,-0.32125 0.3,-0.3225 0.55875,-0.6425 0.89,-1.035 l -0.435,-1.11875" id="path3320" style="fill:#0067a6;fill-opacity:1;fill-rule:nonzero;stroke:none"/>
    <path d="m 407.0367,483.8804 -0.93125,2.7225 c -0.0625,0.19625 -0.0125,0.2575 0.0725,0.2575 0.15625,0 0.83875,-0.5375 1.18,-0.93125 0.1025,0 0.165,0.0638 0.14375,0.1875 -0.57875,0.85875 -1.55125,1.49 -1.98625,1.49 -0.145,0 -0.27875,-0.15625 -0.27875,-0.28 0,-0.135 0.04,-0.27875 0.145,-0.59 l 0.97125,-2.85625 -0.80625,0 c -0.02,-0.1025 0.0125,-0.24875 0.11375,-0.29 l 0.8275,-0.145 0.58,-1.025 c 0.10375,-0.0612 0.31,-0.04 0.3925,0.0638 l -0.3,1.0125 1.12875,0 c 0.0725,0.105 0.0125,0.31125 -0.12375,0.38375 l -1.12875,0" id="path3322" style="fill:#0067a6;fill-opacity:1;fill-rule:nonzero;stroke:none"/>
    <path d="m 409.8617,484.05665 c -0.4025,0.43375 -0.64125,0.91125 -0.765,1.21125 0.6825,-0.2075 1.00375,-0.405 1.38625,-0.765 0.32125,-0.3025 0.40375,-0.6125 0.40375,-0.705 0,-0.105 -0.0525,-0.2375 -0.23875,-0.2375 -0.1425,0 -0.4125,0.0925 -0.78625,0.49625 z m 1.64625,-0.1975 c 0,0.78625 -1.025,1.305 -2.515,1.71875 -0.0725,0.17625 -0.145,0.5075 -0.145,0.92125 0,0.3525 0.21875,0.58875 0.49625,0.58875 0.3725,0 0.6325,-0.20625 1.0875,-0.59875 0.0925,0 0.155,0.0825 0.13375,0.17625 -0.63125,0.775 -1.22125,0.94125 -1.65625,0.94125 -0.62,0 -0.8375,-0.58 -0.8375,-1.0875 0,-0.6525 0.415,-1.91375 1.5425,-2.78375 0.5375,-0.41375 0.9425,-0.49625 1.24125,-0.49625 0.41375,0 0.6525,0.35125 0.6525,0.62" id="path3324" style="fill:#0067a6;fill-opacity:1;fill-rule:nonzero;stroke:none"/>
    <path d="m 412.8217,485.47415 0.0312,0.0213 c 0.735,-1.11875 1.76,-2.25625 2.53375,-2.25625 0.405,0 0.58,0.2175 0.58,0.55875 0,0.165 -0.0813,0.4875 -0.165,0.72375 -0.185,0.51875 -0.93125,2.205 -0.96125,2.2875 -0.0425,0.10375 -0.0525,0.1975 0.02,0.1975 0.17625,0 0.6725,-0.34125 0.97375,-0.705 0.145,-0.0213 0.16375,0.0625 0.16375,0.145 -0.3925,0.6625 -1.21,1.16 -1.77875,1.16 -0.0925,0 -0.25,-0.135 -0.25,-0.25875 0,-0.0937 0.0325,-0.16625 0.25,-0.6825 0.21625,-0.50875 0.6,-1.5225 0.8375,-2.03875 0.0825,-0.1875 0.2175,-0.55 0.2175,-0.75625 0,-0.12375 -0.0125,-0.24875 -0.165,-0.24875 -0.24875,0 -0.85875,0.51875 -1.42875,1.23125 -0.54875,0.68375 -0.9725,1.49125 -1.5825,2.63 -0.0538,0.0925 -0.0937,0.12375 -0.18625,0.12375 -0.115,0 -0.39375,-0.0312 -0.3,-0.26875 0.0513,-0.135 1.1475,-3.11625 1.2,-3.26125 0.0512,-0.13375 0.0512,-0.2375 -0.0312,-0.2375 -0.2375,0 -0.6,0.2175 -0.94125,0.51875 -0.0825,0 -0.13625,-0.0725 -0.125,-0.1575 0.39375,-0.5375 1.025,-0.96125 1.5425,-0.96125 0.2475,0 0.3625,0.185 0.26875,0.42375 l -0.70375,1.81125" id="path3326" style="fill:#0067a6;fill-opacity:1;fill-rule:nonzero;stroke:none"/>
    <path d="m 418.8867,483.9954 c -0.41375,0.38125 -1.16,1.365 -1.48,2.0175 -0.32125,0.6625 -0.32125,0.8475 -0.32125,0.98375 0,0.12375 0.10375,0.2175 0.19625,0.2175 0.155,0 0.68375,-0.1875 1.3975,-0.92125 0.80625,-0.82875 1.1075,-1.45 1.2625,-1.99875 0.12375,-0.435 -0.0125,-0.745 -0.26875,-0.745 -0.23875,0 -0.5175,0.1975 -0.78625,0.44625 z m 2.08,-2.5675 c 0.2075,-0.58 0.2375,-0.76625 0.0937,-0.86 l -0.23875,-0.16375 c -0.0213,-0.0425 -0.0125,-0.105 0.03,-0.145 0.1975,-0.0725 0.7775,-0.2075 1.22125,-0.19625 l 0.0425,0.0612 c -0.1875,0.58 -0.3425,0.9725 -0.6525,1.83125 -1.025,2.82625 -1.51125,4.48125 -1.60375,4.79125 -0.0412,0.135 -0.0325,0.23875 0.0613,0.23875 0.16625,0 0.81875,-0.5275 1.14,-0.93125 0.0925,0 0.14375,0.0412 0.15375,0.135 -0.27875,0.56875 -1.22125,1.4175 -1.75875,1.4175 -0.2175,0 -0.33125,-0.16625 -0.33125,-0.33125 0,-0.12375 0.0312,-0.29 0.135,-0.59 l 0.3625,-1.025 -0.0425,-0.01 c -0.71375,0.9525 -1.49,1.95625 -2.49375,1.95625 -0.4025,0 -0.62,-0.33125 -0.62,-0.74625 0,-0.73375 0.55875,-1.965 1.375,-2.7 0.70375,-0.63125 1.35625,-0.92125 1.85375,-0.92125 0.165,0 0.41375,0.10375 0.5275,0.32125 l 0.745,-2.1325" id="path3328" style="fill:#0067a6;fill-opacity:1;fill-rule:nonzero;stroke:none"/>
    <path d="m 424.25795,481.1479 c 0,0.32125 -0.2275,0.6525 -0.55,0.6525 -0.26875,0 -0.3725,-0.2075 -0.3725,-0.3925 0,-0.22875 0.1575,-0.6525 0.55875,-0.6525 0.23875,0 0.36375,0.16625 0.36375,0.3925 z m -1.325,2.95 c 0.0512,-0.115 0.0512,-0.19625 -0.02,-0.19625 -0.0725,0 -0.34125,0.12375 -0.85875,0.5475 -0.0937,-0.01 -0.1575,-0.0913 -0.13625,-0.17625 0.57,-0.65125 1.36625,-1.03375 1.70875,-1.03375 0.0725,0 0.12375,0.0613 0.165,0.10375 0.0625,0.0625 0.0625,0.15375 -0.0625,0.455 l -1.23125,2.93875 c -0.0413,0.10375 -0.0513,0.2275 0.0312,0.2275 0.175,0 0.725,-0.36125 1.07625,-0.765 0.1025,0.01 0.15625,0.0813 0.15625,0.175 -0.15625,0.30125 -1.22125,1.2325 -1.9375,1.2325 -0.0513,0 -0.11125,-0.0312 -0.165,-0.0937 -0.0613,-0.0725 -0.0925,-0.165 -0.04,-0.28 l 1.31375,-3.135" id="path3330" style="fill:#0067a6;fill-opacity:1;fill-rule:nonzero;stroke:none"/>
    <path d="m 425.78795,485.47415 0.0325,0.0213 c 0.735,-1.11875 1.75875,-2.25625 2.53375,-2.25625 0.405,0 0.58,0.2175 0.58,0.55875 0,0.165 -0.0825,0.4875 -0.16625,0.72375 -0.185,0.51875 -0.93,2.205 -0.96125,2.2875 -0.0413,0.10375 -0.0525,0.1975 0.0212,0.1975 0.175,0 0.6725,-0.34125 0.9725,-0.705 0.145,-0.0213 0.165,0.0625 0.165,0.145 -0.39375,0.6625 -1.21125,1.16 -1.77875,1.16 -0.0937,0 -0.25,-0.135 -0.25,-0.25875 0,-0.0937 0.0325,-0.16625 0.25,-0.6825 0.21625,-0.50875 0.59875,-1.5225 0.8375,-2.03875 0.0825,-0.1875 0.2175,-0.55 0.2175,-0.75625 0,-0.12375 -0.0125,-0.24875 -0.16625,-0.24875 -0.2475,0 -0.85875,0.51875 -1.42875,1.23125 -0.5475,0.68375 -0.97125,1.49125 -1.5825,2.63 -0.0525,0.0925 -0.0925,0.12375 -0.18625,0.12375 -0.115,0 -0.3925,-0.0312 -0.3,-0.26875 0.0513,-0.135 1.14875,-3.11625 1.20125,-3.26125 0.0512,-0.13375 0.0512,-0.2375 -0.0312,-0.2375 -0.23875,0 -0.60125,0.2175 -0.9425,0.51875 -0.0825,0 -0.135,-0.0725 -0.12375,-0.1575 0.3925,-0.5375 1.02375,-0.96125 1.54125,-0.96125 0.24875,0 0.3625,0.185 0.26875,0.42375 l -0.70375,1.81125" id="path3332" style="fill:#0067a6;fill-opacity:1;fill-rule:nonzero;stroke:none"/>
    <path d="m 430.88045,483.9629 c -0.405,0.46625 -0.93125,1.3775 -0.93125,1.90375 0,0.21875 0.145,0.3625 0.31,0.3625 0.145,0 0.39375,-0.0613 0.6825,-0.4025 0.58,-0.68375 0.9425,-1.605 0.9425,-1.93625 0,-0.21625 -0.155,-0.35125 -0.31,-0.35125 -0.17625,0 -0.3725,0.0725 -0.69375,0.42375 z m 0.7775,5.2375 c 0,-0.175 -0.115,-0.405 -0.4475,-0.63125 -0.43375,-0.29 -0.795,-0.49625 -0.96125,-0.5175 -0.26,-0.0312 -0.6625,0.16625 -0.9625,0.3825 -0.28,0.2075 -0.3925,0.43375 -0.3925,0.6725 0,0.48625 0.6925,0.7975 1.39625,0.7975 0.47625,0 1.3675,-0.2075 1.3675,-0.70375 z m 0.37125,-5.8675 c 0.11375,0.04 0.20625,0.0913 0.2475,0.0913 0.0937,0 0.3,-0.009 0.49875,-0.0612 0.19625,-0.0513 0.3925,-0.0838 0.465,-0.0838 0.145,0 0.21625,0.105 0.21625,0.26 0,0.23875 -0.12375,0.32 -0.2275,0.32 -0.1025,0 -0.2475,-0.03 -0.34125,-0.0512 -0.0937,-0.03 -0.31125,-0.0613 -0.38375,-0.0613 -0.0513,0 -0.1025,0.0312 -0.0913,0.0613 0.0213,0.0825 0.0725,0.24875 0.0725,0.3925 0,0.84 -0.60125,1.62625 -1.315,2.07125 -0.11375,0.0725 -0.5075,0.20625 -0.735,0.26875 -0.11375,0.0625 -0.22875,0.20625 -0.22875,0.3625 0,0.12375 0.0725,0.31125 0.3425,0.48625 0.2375,0.16625 0.6425,0.39375 1.01375,0.62 0.6,0.35375 0.7775,0.67375 0.7775,1.00375 0,0.58 -0.84,1.2325 -2.52625,1.2325 -0.755,0 -1.635,-0.29 -1.635,-0.9825 0,-0.7875 1.21125,-1.28375 1.77,-1.45875 -0.26875,-0.17625 -0.33125,-0.3325 -0.33125,-0.4775 0,-0.18625 0.32,-0.61 0.465,-0.79625 -0.19625,-0.0525 -0.755,-0.2375 -0.755,-0.9325 0,-0.57875 0.32,-1.2825 0.83875,-1.73875 0.49625,-0.42375 0.9825,-0.62 1.53,-0.62 0.105,0 0.2175,0.0512 0.3325,0.0937" id="path3334" style="fill:#0067a6;fill-opacity:1;fill-rule:nonzero;stroke:none"/>
    <path d="m 437.48295,485.78415 c -0.36125,1.14 -0.42375,1.35625 0.83875,1.35625 1.19,0 1.635,-0.0525 2.26625,-1.075 0.10375,-0.0325 0.20625,-0.0113 0.2275,0.0612 -0.11375,0.35125 -0.47625,1.0875 -0.6625,1.36625 -0.38375,-0.01 -0.7975,-0.0213 -1.21125,-0.0213 -0.41375,-0.01 -0.81625,-0.01 -1.17875,-0.01 l -1.20125,0 c -0.425,0 -0.76625,0.01 -1.09625,0.0312 -0.0838,-0.0525 -0.0838,-0.19625 -0.0125,-0.26 l 0.24875,-0.03 c 0.49625,-0.0725 0.6,-0.17625 0.9325,-1.23125 l 1.21,-3.85 c 0.31,-0.97375 0.33125,-1.13875 -0.2375,-1.22125 l -0.25,-0.0425 c -0.06,-0.0812 -0.0512,-0.2175 0.0637,-0.2575 0.4025,0.01 0.755,0.0312 1.17875,0.0312 0.44375,0 0.7675,-0.0212 1.305,-0.0312 0.0725,0.04 0.0925,0.20625 0,0.2575 l -0.32,0.0425 c -0.5925,0.0725 -0.64375,0.19625 -0.96375,1.22125 l -1.13875,3.6625" id="path3336" style="fill:#0067a6;fill-opacity:1;fill-rule:nonzero;stroke:none"/>
    <path d="m 443.8892,481.1479 c 0,0.32125 -0.2275,0.6525 -0.54875,0.6525 -0.27,0 -0.3725,-0.2075 -0.3725,-0.3925 0,-0.22875 0.15625,-0.6525 0.55875,-0.6525 0.23875,0 0.3625,0.16625 0.3625,0.3925 z m -1.32375,2.95 c 0.0512,-0.115 0.0512,-0.19625 -0.0213,-0.19625 -0.0725,0 -0.3425,0.12375 -0.85875,0.5475 -0.0937,-0.01 -0.15625,-0.0913 -0.135,-0.17625 0.56875,-0.65125 1.36625,-1.03375 1.7075,-1.03375 0.0725,0 0.12375,0.0613 0.16625,0.10375 0.0613,0.0625 0.0613,0.15375 -0.0637,0.455 l -1.23,2.93875 c -0.0425,0.10375 -0.0525,0.2275 0.03,0.2275 0.17625,0 0.725,-0.36125 1.07625,-0.765 0.10375,0.01 0.15625,0.0813 0.15625,0.175 -0.15625,0.30125 -1.22125,1.2325 -1.93625,1.2325 -0.0512,0 -0.11375,-0.0312 -0.16625,-0.0937 -0.0613,-0.0725 -0.0913,-0.165 -0.04,-0.28 l 1.315,-3.135" id="path3338" style="fill:#0067a6;fill-opacity:1;fill-rule:nonzero;stroke:none"/>
    <path d="m 445.76295,483.76665 c -0.0625,0.17625 -0.145,0.50625 -0.23875,0.8175 -0.33125,1.14875 -0.63125,2.2975 -0.9725,3.43625 -0.29,0.93125 -0.6,1.50125 -0.8175,1.6975 -0.12375,0.1225 -0.57,0.5275 -1.18125,0.5275 -0.475,0 -0.67125,-0.3525 -0.67125,-0.5275 0,-0.2275 0.12375,-0.32125 0.19625,-0.3725 0.145,-0.12375 0.2175,-0.0425 0.3,0.0937 0.145,0.23625 0.415,0.38125 0.62125,0.38125 0.18625,0 0.43375,-0.155 0.65125,-0.85875 0.52875,-1.72875 0.87,-3.5075 1.36625,-5.195 l -0.85875,0 c -0.1025,-0.0925 -0.0625,-0.28875 0.0725,-0.3825 l 0.89,0 c 0.26875,-0.93125 0.53875,-1.74 1.15,-2.4625 0.51625,-0.61125 1.1275,-0.85875 1.7375,-0.85875 0.43625,0 0.84875,0.26875 0.84875,0.6825 0,0.32 -0.28,0.64125 -0.445,0.64125 -0.0937,0 -0.13375,-0.0925 -0.145,-0.16625 -0.0312,-0.62 -0.36125,-0.80625 -0.63125,-0.80625 -0.3,0 -0.55875,0.2075 -0.8075,0.55875 -0.48625,0.6925 -0.6925,1.5325 -0.97125,2.41125 l 1.2925,0 c 0.0725,0.1125 0.0512,0.26875 -0.105,0.3825 l -1.28125,0" id="path3340" style="fill:#0067a6;fill-opacity:1;fill-rule:nonzero;stroke:none"/>
    <path d="m 448.3292,484.05665 c -0.40375,0.43375 -0.6425,0.91125 -0.76625,1.21125 0.6825,-0.2075 1.00375,-0.405 1.38625,-0.765 0.32125,-0.3025 0.405,-0.6125 0.405,-0.705 0,-0.105 -0.0525,-0.2375 -0.23875,-0.2375 -0.145,0 -0.41375,0.0925 -0.78625,0.49625 z m 1.645,-0.1975 c 0,0.78625 -1.025,1.305 -2.515,1.71875 -0.0725,0.17625 -0.145,0.5075 -0.145,0.92125 0,0.3525 0.21875,0.58875 0.4975,0.58875 0.3725,0 0.63,-0.20625 1.08625,-0.59875 0.0937,0 0.155,0.0825 0.135,0.17625 -0.63125,0.775 -1.22125,0.94125 -1.65625,0.94125 -0.62125,0 -0.83875,-0.58 -0.83875,-1.0875 0,-0.6525 0.415,-1.91375 1.5425,-2.78375 0.53875,-0.41375 0.9425,-0.49625 1.24125,-0.49625 0.41375,0 0.6525,0.35125 0.6525,0.62" id="path3342" style="fill:#0067a6;fill-opacity:1;fill-rule:nonzero;stroke:none"/>
    <path d="m 324.4817,485.02165 c 0,-0.38375 0.29,-0.68375 0.6825,-0.68375 0.38375,0 0.6725,0.3 0.6725,0.68375 0,0.3825 -0.28875,0.6825 -0.6725,0.6825 -0.3925,0 -0.6825,-0.3 -0.6825,-0.6825" id="path3344" style="fill:#0067a6;fill-opacity:1;fill-rule:nonzero;stroke:none"/>
    <path d="m 391.76795,485.02165 c 0,-0.38375 0.29,-0.68375 0.68375,-0.68375 0.3825,0 0.6725,0.3 0.6725,0.68375 0,0.3825 -0.29,0.6825 -0.6725,0.6825 -0.39375,0 -0.68375,-0.3 -0.68375,-0.6825" id="path3346" style="fill:#0067a6;fill-opacity:1;fill-rule:nonzero;stroke:none"/>
  </g>
</svg>